<?xml version="1.0" standalone="no"?>
<!DOCTYPE svg PUBLIC "-//W3C//DTD SVG 20010904//EN"
 "http://www.w3.org/TR/2001/REC-SVG-20010904/DTD/svg10.dtd">
<svg version="1.0" xmlns="http://www.w3.org/2000/svg"
 width="643.000000pt" height="643.000000pt" viewBox="0 0 643.000000 643.000000"
 preserveAspectRatio="xMidYMid meet">
<metadata>
Created by potrace 1.14, written by Peter Selinger 2001-2017
</metadata>
<g transform="translate(0.000000,643.000000) scale(0.100000,-0.100000)"
fill="#000000" stroke="none">
<path d="M3488 5945 c-25 -14 -68 -86 -68 -115 0 -29 41 -96 69 -113 26 -15
73 -17 518 -17 466 0 489 1 520 20 83 50 83 170 0 220 -31 19 -53 20 -522 20
-407 -1 -494 -3 -517 -15z"/>
<path d="M533 5520 c-84 -51 -84 -175 1 -226 29 -18 58 -19 516 -19 458 0 487
1 516 19 41 25 64 65 64 113 0 50 -18 82 -59 110 l-34 23 -486 0 c-464 0 -487
-1 -518 -20z"/>
<path d="M3493 5520 c-18 -10 -40 -31 -49 -45 -24 -37 -22 -105 4 -142 41 -58
43 -58 567 -58 447 0 483 1 508 18 64 42 84 123 47 185 -38 62 -39 62 -567 62
-456 0 -479 -1 -510 -20z"/>
<path d="M541 5103 c-95 -47 -94 -191 2 -236 31 -15 87 -17 507 -17 420 0 476
2 507 17 69 32 94 123 53 191 -38 62 -40 62 -562 62 -421 0 -477 -2 -507 -17z"/>
<path d="M3501 5102 c-51 -25 -74 -63 -74 -117 0 -54 23 -92 74 -117 31 -16
76 -18 508 -18 467 0 474 0 512 22 91 51 91 175 0 226 -38 22 -45 22 -512 22
-432 0 -477 -2 -508 -18z"/>
<path d="M4981 5102 c-50 -25 -76 -65 -76 -117 0 -52 26 -92 76 -117 31 -16
76 -18 504 -18 524 0 516 -1 562 69 43 64 19 147 -52 181 -40 19 -62 20 -511
20 -427 0 -472 -2 -503 -18z"/>
<path d="M575 4691 c-93 -23 -134 -118 -85 -198 39 -64 29 -63 563 -63 l484 0
34 23 c18 12 39 34 46 47 19 37 16 98 -7 135 -38 61 -30 60 -540 62 -256 1
-478 -2 -495 -6z"/>
<path d="M3515 4685 c-114 -41 -122 -185 -13 -241 22 -11 115 -14 505 -14 435
0 481 2 513 18 64 31 88 117 50 179 -42 70 -22 68 -545 70 -388 2 -477 0 -510
-12z"/>
<path d="M5008 4693 c-41 -6 -95 -62 -103 -106 -5 -27 -2 -47 14 -81 38 -78
24 -76 568 -76 444 0 481 1 512 18 65 35 89 118 51 179 -43 70 -22 68 -545 69
-258 1 -482 -1 -497 -3z"/>
<path d="M533 4250 c-61 -37 -81 -116 -43 -177 39 -64 29 -63 563 -63 l484 0
34 23 c43 29 59 60 59 116 0 37 -5 49 -39 82 l-39 39 -493 0 c-472 0 -495 -1
-526 -20z"/>
<path d="M1989 4231 c-35 -35 -39 -44 -39 -88 0 -36 6 -58 21 -77 45 -57 36
-56 561 -56 461 0 484 1 515 20 83 50 83 170 0 220 -31 19 -54 20 -526 20
l-493 0 -39 -39z"/>
<path d="M3488 4255 c-14 -8 -36 -35 -48 -59 -18 -38 -20 -50 -11 -83 11 -40
38 -71 78 -92 15 -8 165 -11 498 -11 515 0 526 1 560 54 42 64 25 148 -38 186
-31 19 -53 20 -522 20 -407 -1 -494 -3 -517 -15z"/>
<path d="M4964 4251 c-31 -19 -64 -74 -64 -107 0 -10 9 -37 20 -60 37 -76 25
-74 567 -74 444 0 481 1 512 18 37 20 71 73 71 110 0 40 -28 91 -62 112 -32
19 -49 20 -523 20 -462 0 -492 -1 -521 -19z"/>
<path d="M533 3830 c-63 -38 -81 -120 -40 -181 12 -18 34 -39 47 -46 19 -10
144 -13 519 -13 l493 0 39 39 c35 35 39 44 39 91 0 47 -4 56 -39 91 l-39 39
-493 0 c-472 0 -495 -1 -526 -20z"/>
<path d="M1989 3811 c-35 -35 -39 -44 -39 -91 0 -47 4 -56 39 -91 l39 -39 493
0 c472 0 495 1 526 20 83 50 83 170 0 220 -31 19 -54 20 -526 20 l-493 0 -39
-39z"/>
<path d="M3488 3835 c-25 -14 -68 -86 -68 -115 0 -29 41 -96 69 -113 26 -15
73 -17 518 -17 466 0 489 1 520 20 83 50 83 170 0 220 -31 19 -53 20 -522 20
-407 -1 -494 -3 -517 -15z"/>
<path d="M4964 3831 c-32 -20 -64 -74 -64 -111 0 -37 32 -91 64 -111 29 -18
59 -19 522 -19 l491 0 34 23 c22 15 39 38 49 65 13 37 13 47 0 84 -10 27 -27
50 -49 65 l-34 23 -491 0 c-463 0 -493 -1 -522 -19z"/>
<path d="M533 3410 c-84 -51 -84 -175 1 -226 29 -18 58 -19 516 -19 458 0 487
1 516 19 41 25 64 65 64 113 0 50 -18 82 -59 110 l-34 23 -486 0 c-464 0 -487
-1 -518 -20z"/>
<path d="M2013 3410 c-66 -40 -85 -117 -44 -183 38 -62 32 -62 516 -65 242 -2
465 0 495 3 45 6 61 13 92 45 32 31 38 44 38 79 0 54 -22 97 -63 121 -31 19
-54 20 -517 20 -463 0 -486 -1 -517 -20z"/>
<path d="M3493 3410 c-18 -10 -40 -31 -49 -45 -24 -37 -22 -105 4 -142 41 -58
43 -58 567 -58 447 0 483 1 508 18 64 42 84 123 47 185 -38 62 -39 62 -567 62
-456 0 -479 -1 -510 -20z"/>
<path d="M4984 3420 c-27 -11 -72 -65 -80 -97 -11 -41 13 -100 53 -130 l36
-28 492 0 c452 0 493 1 518 18 87 57 85 181 -4 229 -31 17 -67 18 -514 17
-264 0 -489 -4 -501 -9z"/>
<path d="M575 2981 c-42 -10 -70 -30 -89 -62 -14 -25 -16 -141 -16 -1244 0
-1347 -5 -1250 64 -1291 30 -18 103 -19 2571 -22 2858 -3 2630 -9 2748 72 72
49 128 118 160 196 l22 55 3 1095 c2 1029 1 1097 -15 1129 -10 19 -31 44 -46
55 l-28 21 -2672 2 c-1470 0 -2685 -2 -2702 -6z m2985 -1148 c184 -511 348
-966 365 -1013 l31 -85 67 -3 c64 -3 67 -4 67 -27 l0 -25 -480 0 -480 0 0 30
0 30 104 0 105 0 -107 318 -107 317 -290 3 -290 2 -113 -312 c-62 -172 -113
-316 -112 -320 0 -5 50 -8 111 -8 109 0 110 0 107 -23 -3 -22 -3 -22 -225 -25
l-223 -2 0 30 0 30 68 0 67 0 380 1005 380 1005 121 0 121 0 333 -927z m-1340
887 l0 -30 -80 0 -80 0 0 -552 c-1 -654 -10 -889 -39 -1003 -46 -179 -139
-305 -278 -378 -102 -53 -204 -77 -358 -84 -158 -7 -265 11 -370 61 -86 40
-139 91 -173 164 -21 47 -24 64 -20 136 7 117 46 183 138 232 51 27 189 25
246 -4 50 -25 88 -69 104 -118 14 -41 9 -145 -10 -206 l-11 -38 -58 0 c-52 0
-59 -2 -69 -25 -30 -66 -6 -115 67 -140 81 -27 173 1 205 62 40 78 44 170 52
1131 l5 772 -110 0 -111 0 0 25 0 25 475 0 475 0 0 -30z m2753 10 l267 0 0
-30 0 -30 -153 0 -154 0 -6 -442 c-4 -244 -7 -678 -7 -965 l0 -523 94 0 c122
0 185 13 275 55 124 59 246 205 377 450 56 103 61 110 93 113 l33 3 -6 -38
c-3 -21 -17 -175 -32 -343 -14 -168 -28 -307 -29 -309 -2 -2 -353 0 -780 4
l-775 7 0 29 0 29 84 0 84 0 6 243 c4 133 8 567 9 965 l2 722 -87 0 -88 0 0
37 0 36 263 -6 c144 -4 382 -7 530 -7z"/>
<path d="M2851 2209 c-1 -3 -62 -171 -136 -373 -74 -203 -135 -375 -135 -382
0 -12 45 -14 260 -14 143 0 260 3 260 6 0 6 -234 732 -245 759 -2 6 -4 7 -4 4z"/>
</g>
</svg>
